<?xml version="1.0"?>
<svg version="1.1" xmlns="http://www.w3.org/2000/svg" width="240" height="50" style=""><path fill="#0a1414" d="M25.34,24.142l-9.922,14.08l12.408,0l0-1.1l-9.922,0l9.922-14.344l-12.144,0l0,1.364l9.658,0z M42.87048,22.778l-1.386,0l0,9.394q0,2.024-1.408,3.388q-1.386,1.32-3.3,1.32q-2.09,0-3.366-1.32q-1.298-1.342-1.298-3.388l0-9.394l-1.408,0l0,9.394q0,2.508,1.716,4.268q1.738,1.804,4.356,1.804q2.442,0,4.29-1.804q1.804-1.76,1.804-4.268l0-9.394z M46.23296,38.156l1.364,0l0-9.306q0-1.848,1.408-3.256t3.256-1.408q1.804,0,3.256,1.408q1.386,1.386,1.386,3.256l0,9.306l1.408,0l0-9.306q0-1.892,1.408-3.256q1.408-1.408,3.234-1.408q1.848,0,3.256,1.408t1.408,3.256l0,9.306l1.364,0l0-9.306q0-2.508-1.76-4.268t-4.268-1.76q-1.65,0-3.102,0.902q-1.474,0.924-2.112,2.354q-0.858-1.474-2.31-2.354q-1.518-0.902-3.168-0.902q-2.486,0-4.246,1.76q-1.782,1.782-1.782,4.268l0,9.306z M79.07544,30.478l1.65,0q1.672,0,2.772-1.1t1.1-2.772q0-1.474-1.1-2.64q-1.166-1.21-2.772-1.21l-6.886,0l-1.364,0l0,15.444l1.364,0l0-7.722l3.586,0l4.686,7.722l1.65,0z M73.83944,29.114l0-4.972l6.886,0q1.012,0,1.782,0.726q0.726,0.726,0.726,1.738q0,1.056-0.726,1.782q-0.77,0.726-1.782,0.726l-6.886,0z M99.94992,22.778l-1.386,0l0,9.394q0,2.024-1.408,3.388q-1.386,1.32-3.3,1.32q-2.09,0-3.366-1.32q-1.298-1.342-1.298-3.388l0-9.394l-1.408,0l0,9.394q0,2.508,1.716,4.268q1.738,1.804,4.356,1.804q2.442,0,4.29-1.804q1.804-1.76,1.804-4.268l0-9.394z M108.1304,22.778l-3.366,0l-0.836,0l-0.55,0l0,15.422l0.55,0l0.836,0l3.366,0q3.212,0,5.5-2.244q2.354-2.31,2.354-5.61q0-3.124-2.354-5.368q-2.31-2.2-5.5-2.2z M108.1304,36.814l-3.366,0l0-12.606l3.366,0q2.75,0,4.62,1.804q1.848,1.804,1.848,4.334q0,2.75-1.848,4.598q-1.87,1.87-4.62,1.87z M126.47136,38.2l1.364,0l0-9.328q0-1.848,1.408-3.3q1.408-1.408,3.256-1.408t3.3,1.408q1.408,1.452,1.408,3.3l0,9.328l1.364,0l0-9.328q0-2.508-1.782-4.29t-4.29-1.782q-2.464,0-4.246,1.782t-1.782,4.29l0,9.328z M143.20984,33.976q0-1.056,0.748-1.914q0.748-0.902,1.804-0.902l0.286,0l4.114,0l0-1.364l-4.114,0l-0.286,0q-1.122-0.22-1.837-0.968t-0.715-1.782q0-1.298,0.759-2.057t2.079-0.759l7.48,0l0-1.386l-7.48,0q-1.694,0-2.948,1.254q-1.254,1.21-1.254,2.948q0,1.1,0.418,2.002t1.232,1.298q-0.814,0.594-1.232,1.562t-0.418,2.068q0,1.716,1.254,2.926q1.276,1.276,2.948,1.276l7.48,0l0-1.452l-7.48,0q-1.32,0-2.079-0.748t-0.759-2.002z M163.00632,30.478l1.65,0q1.672,0,2.772-1.1t1.1-2.772q0-1.474-1.1-2.64q-1.166-1.21-2.772-1.21l-6.886,0l-1.364,0l0,15.444l1.364,0l0-7.722l3.586,0l4.686,7.722l1.65,0z M157.77032,29.114l0-4.972l6.886,0q1.012,0,1.782,0.726q0.726,0.726,0.726,1.738q0,1.056-0.726,1.782q-0.77,0.726-1.782,0.726l-6.886,0z M171.7588,38.156l1.364,0l0-9.306q0-1.848,1.408-3.256t3.256-1.408q1.804,0,3.256,1.408q1.386,1.386,1.386,3.256l0,9.306l1.408,0l0-9.306q0-1.892,1.408-3.256q1.408-1.408,3.234-1.408q1.848,0,3.256,1.408t1.408,3.256l0,9.306l1.364,0l0-9.306q0-2.508-1.76-4.268t-4.268-1.76q-1.65,0-3.102,0.902q-1.474,0.924-2.112,2.354q-0.858-1.474-2.31-2.354q-1.518-0.902-3.168-0.902q-2.486,0-4.246,1.76q-1.782,1.782-1.782,4.268l0,9.306z M203.67728,22.712q-2.464,0-4.136,1.782q-1.65,1.76-1.65,4.29l0,9.416l1.386,0l0-6.908l8.844,0l0,6.908l1.386,0l0-9.416q0-2.53-1.65-4.29q-1.716-1.782-4.18-1.782z M208.12128,29.928l-8.844,0l0-1.144q0-1.892,1.276-3.278q1.298-1.408,3.124-1.408t3.168,1.408q1.276,1.386,1.276,3.278l0,1.144z M212.84776,38.2l1.364,0l0-9.328q0-1.848,1.408-3.3q1.408-1.408,3.256-1.408t3.3,1.408q1.408,1.452,1.408,3.3l0,9.328l1.364,0l0-9.328q0-2.508-1.782-4.29t-4.29-1.782q-2.464,0-4.246,1.782t-1.782,4.29l0,9.328z"/><path fill="#96b0ad" d=""/></svg>
